<?xml version="1.0" standalone="no"?>
<!DOCTYPE svg PUBLIC "-//W3C//DTD SVG 20010904//EN"
 "http://www.w3.org/TR/2001/REC-SVG-20010904/DTD/svg10.dtd">
<svg version="1.0" xmlns="http://www.w3.org/2000/svg"
 width="260.000000pt" height="260.000000pt" viewBox="0 0 260.000000 260.000000"
 preserveAspectRatio="xMidYMid meet">
<metadata>
Created by potrace 1.14, written by Peter Selinger 2001-2017
</metadata>
<g transform="translate(0.000000,260.000000) scale(0.100000,-0.100000)"
fill="#000000" stroke="none">
<path d="M982 2576 c4 -17 1 -23 -8 -19 -9 3 -21 -11 -34 -41 -22 -51 -40 -60
-40 -19 0 23 -2 25 -12 11 -15 -18 -93 -32 -111 -21 -7 5 -32 8 -57 9 -25 0
-84 2 -131 3 -79 4 -89 2 -125 -23 -21 -14 -44 -26 -51 -26 -7 0 -13 -7 -13
-16 0 -11 6 -15 19 -11 25 6 18 -12 -17 -53 -35 -40 -67 -41 -59 -2 5 25 -11
62 -27 62 -3 0 -6 -11 -6 -25 0 -13 -5 -35 -11 -49 -10 -20 -9 -28 5 -41 17
-17 22 -40 7 -31 -5 3 -11 -1 -15 -9 -3 -8 -12 -15 -20 -15 -8 0 -38 -16 -68
-36 -54 -36 -55 -39 -6 -15 22 11 30 12 43 1 8 -7 13 -16 10 -20 -3 -5 1 -10
7 -13 22 -7 -7 -32 -53 -46 -33 -10 -43 -10 -50 0 -6 10 -13 9 -33 -5 -33 -21
-33 -24 0 -18 24 4 25 3 12 -17 -21 -34 -57 -39 -79 -10 l-19 24 0 -32 c0 -23
-5 -33 -15 -33 -8 0 -15 -4 -15 -9 0 -5 10 -7 23 -4 18 5 20 3 9 -8 -17 -18
-15 -29 4 -29 12 0 14 -4 7 -12 -6 -7 -10 -37 -10 -66 0 -40 4 -52 14 -48 16
7 16 -2 1 -59 -8 -30 -17 -44 -25 -41 -10 4 -13 -8 -13 -47 0 -29 -5 -58 -11
-64 -8 -8 -5 -17 11 -35 29 -30 42 -65 41 -107 -1 -39 -16 -61 -42 -61 -18 0
-19 -17 -19 -465 0 -258 4 -465 9 -465 5 0 11 -18 15 -40 3 -22 24 -95 46
-162 22 -66 40 -123 40 -125 0 -1 -25 -3 -55 -3 l-55 0 0 -95 0 -95 246 0 245
0 -20 29 c-12 16 -21 32 -21 36 0 3 -6 13 -14 21 -8 7 -12 23 -9 33 4 15 -1
22 -19 26 -26 7 -52 40 -43 55 11 18 27 10 22 -10 -4 -15 0 -19 22 -18 14 0
49 -6 77 -15 31 -9 57 -11 65 -6 21 13 39 11 39 -6 0 -10 10 -15 26 -15 26 0
25 1 -17 38 -24 22 -71 61 -104 88 -33 26 -69 57 -80 67 -11 11 -36 30 -56 42
-133 86 -237 267 -260 455 -11 82 -10 107 5 182 12 59 15 109 11 154 -7 88 14
165 54 193 16 12 36 21 44 21 31 0 41 28 28 78 -11 46 -11 49 40 162 28 63 52
129 54 147 1 18 10 43 19 57 9 14 16 31 16 38 0 48 319 309 460 375 81 39 121
50 251 67 142 19 276 13 361 -17 43 -16 93 -25 140 -26 40 -1 132 -10 203 -21
114 -16 146 -22 190 -34 6 -2 27 -6 48 -11 41 -8 57 -23 37 -35 -10 -6 -10
-12 1 -27 39 -54 75 -93 85 -93 7 0 15 -8 19 -17 13 -35 27 15 28 104 2 75 5
87 22 97 11 6 22 12 24 13 2 1 7 22 12 45 6 35 5 45 -9 56 -14 11 -14 13 4 27
16 13 17 16 4 25 -18 12 -57 5 -77 -15 -16 -17 -27 -20 -18 -5 9 14 -5 58 -21
64 -11 4 -13 0 -8 -19 7 -28 2 -30 -27 -12 -17 10 -22 9 -35 -8 -8 -11 -12
-26 -8 -35 14 -35 17 -53 6 -46 -6 3 -13 20 -17 36 -4 20 -13 30 -25 30 -10 0
-25 3 -33 6 -8 3 -21 -1 -28 -9 -8 -7 -20 -12 -26 -10 -7 3 -21 -1 -33 -7 -16
-9 -24 -8 -36 5 -23 22 -74 47 -104 50 -64 7 -111 19 -121 31 -6 8 -15 11 -20
8 -5 -2 -20 3 -35 12 -18 12 -28 14 -33 6 -8 -14 -34 1 -37 21 -1 8 -10 27
-20 42 -15 24 -23 26 -56 22 -24 -3 -36 -1 -32 5 9 14 -17 29 -38 22 -12 -3
-18 0 -18 10 0 13 -12 16 -60 16 -33 0 -60 -4 -60 -10 0 -5 -11 -10 -25 -10
-14 0 -25 -4 -25 -9 0 -15 -59 -33 -87 -27 -16 4 -45 18 -65 32 -47 30 -51 30
-46 0z m8 -67 c0 -10 -4 -19 -10 -19 -5 0 -10 12 -10 26 0 14 4 23 10 19 6 -3
10 -15 10 -26z m85 11 c33 -4 39 -9 37 -25 -6 -32 -16 -36 -58 -22 -31 11 -40
19 -42 42 -3 20 0 25 10 19 7 -5 31 -11 53 -14z m-592 -122 c-4 -7 -8 -19 -8
-27 0 -8 -5 -16 -11 -18 -6 -2 -10 6 -8 19 1 13 3 26 3 31 1 4 8 7 17 7 10 0
12 -4 7 -12z m307 -36 c0 -4 -17 -16 -37 -27 -21 -11 -57 -39 -82 -62 -45 -44
-87 -61 -60 -25 54 70 179 151 179 114z m-480 -152 c0 -5 -9 -10 -21 -10 -11
0 -17 5 -14 10 3 6 13 10 21 10 8 0 14 -4 14 -10z m50 -1975 c0 -8 -4 -15 -10
-15 -5 0 -10 7 -10 15 0 8 5 15 10 15 6 0 10 -7 10 -15z"/>
<path d="M1629 2588 c-11 -8 -10 -9 3 -4 10 3 20 1 23 -4 9 -15 35 -12 35 4 0
16 -41 18 -61 4z"/>
<path d="M1788 2536 c-3 -13 1 -37 7 -53 14 -32 65 -83 65 -65 0 7 9 12 20 12
14 0 20 7 21 23 1 20 2 19 11 -5 5 -16 16 -28 24 -28 8 0 17 0 22 0 4 -1 9 17
13 39 4 31 2 38 -10 33 -9 -3 -12 -1 -7 6 9 15 1 15 -25 2 -13 -7 -19 -7 -19
0 0 5 -7 10 -15 10 -9 0 -33 11 -55 25 -22 14 -41 25 -44 25 -2 0 -6 -11 -8
-24z"/>
<path d="M2060 2470 c0 -5 10 -10 23 -10 18 0 19 2 7 10 -19 13 -30 13 -30 0z"/>
<path d="M1980 2425 c0 -8 2 -15 4 -15 2 0 6 7 10 15 3 8 1 15 -4 15 -6 0 -10
-7 -10 -15z"/>
<path d="M2060 2424 c0 -8 5 -12 10 -9 6 3 10 10 10 16 0 5 -4 9 -10 9 -5 0
-10 -7 -10 -16z"/>
<path d="M1925 2390 c3 -5 8 -10 11 -10 2 0 4 5 4 10 0 6 -5 10 -11 10 -5 0
-7 -4 -4 -10z"/>
<path d="M2455 2360 c-3 -5 -2 -10 4 -10 5 0 13 5 16 10 3 6 2 10 -4 10 -5 0
-13 -4 -16 -10z"/>
<path d="M2510 2015 c-14 -17 -50 -21 -50 -5 0 5 -7 7 -15 4 -9 -4 -15 -19
-15 -36 0 -25 -2 -28 -14 -18 -8 6 -12 18 -9 26 3 8 1 14 -4 14 -13 0 -63 -54
-63 -67 0 -6 -6 -14 -12 -17 -7 -4 -3 -4 9 -2 13 2 24 -2 27 -11 3 -8 9 -12
14 -10 12 8 45 -21 37 -33 -8 -14 30 -43 58 -45 12 -1 22 6 25 17 2 10 7 18
11 18 3 0 17 9 31 20 20 16 22 22 11 29 -10 6 -11 20 -5 52 4 24 9 36 11 27 4
-16 6 -16 24 0 10 9 19 22 19 28 0 17 -32 27 -41 12 -6 -9 -11 -9 -22 0 -11
10 -17 9 -27 -3z m-85 -115 c3 -5 1 -10 -4 -10 -6 0 -11 5 -11 10 0 6 2 10 4
10 3 0 8 -4 11 -10z"/>
<path d="M2570 1890 c0 -5 4 -10 9 -10 6 0 13 5 16 10 3 6 -1 10 -9 10 -9 0
-16 -4 -16 -10z"/>
<path d="M2330 1875 c0 -6 13 -12 30 -12 34 0 31 12 -5 19 -15 3 -25 1 -25 -7z"/>
<path d="M835 1650 c3 -5 10 -10 16 -10 5 0 9 5 9 10 0 6 -7 10 -16 10 -8 0
-12 -4 -9 -10z"/>
<path d="M890 1630 c6 -11 18 -20 26 -20 22 0 12 22 -14 31 -20 8 -21 6 -12
-11z"/>
<path d="M805 1630 c3 -5 8 -10 11 -10 2 0 4 5 4 10 0 6 -5 10 -11 10 -5 0 -7
-4 -4 -10z"/>
<path d="M1662 1546 c-48 -34 -48 -34 -8 -51 49 -21 92 -17 150 14 l50 26 -35
6 c-19 4 -27 7 -19 8 13 1 13 2 0 11 -28 18 -103 11 -138 -14z"/>
<path d="M491 1530 c-23 -10 -23 -12 -8 -27 16 -16 15 -18 -14 -30 -44 -18
-67 -16 -74 7 -9 28 -16 26 -67 -20 -53 -46 -69 -91 -71 -201 -2 -61 3 -83 22
-122 27 -53 108 -121 168 -143 88 -31 228 -7 363 61 68 34 85 31 30 -5 -48
-32 -49 -38 -3 -18 31 14 178 122 188 139 16 25 -5 16 -44 -21 -23 -22 -47
-40 -52 -40 -5 0 23 31 62 69 58 55 71 73 66 91 -3 12 -3 19 0 16 14 -13 33
19 33 54 0 49 -38 95 -99 122 -107 47 -443 92 -500 68z"/>
<path d="M1010 1477 c0 -3 19 -15 43 -27 39 -20 41 -20 22 -2 -19 19 -65 39
-65 29z"/>
<path d="M1399 1423 c-1 -5 -1 -11 0 -15 0 -5 -3 -8 -9 -8 -5 0 -10 -4 -10 -8
0 -5 22 -1 49 7 55 18 57 31 5 31 -19 0 -35 -3 -35 -7z"/>
<path d="M1498 1423 c6 -2 18 -2 25 0 6 3 1 5 -13 5 -14 0 -19 -2 -12 -5z"/>
<path d="M1495 1403 c-11 -3 -29 -12 -40 -19 -11 -8 -27 -14 -37 -14 -20 0
-58 -50 -58 -79 0 -11 8 -24 18 -30 14 -8 15 -13 5 -30 -18 -28 -16 -61 2 -61
18 0 19 -12 4 -27 -8 -8 -1 -26 24 -64 33 -50 35 -58 28 -106 -4 -29 -7 -53
-7 -53 1 0 15 4 32 9 28 8 38 4 95 -36 106 -74 203 -110 268 -98 26 4 32 3 21
-4 -20 -14 -3 -14 59 1 51 11 52 12 67 65 17 58 41 78 80 69 30 -8 62 22 71
65 6 32 52 69 86 69 9 0 17 8 17 18 0 10 3 13 8 6 4 -6 23 -9 47 -5 l40 5 -35
6 c-27 4 -35 10 -35 25 0 11 -4 26 -9 33 -5 9 -3 23 4 37 11 20 10 29 -7 57
-10 18 -29 38 -41 44 -12 6 -19 14 -15 18 4 4 0 4 -9 1 -17 -7 -78 22 -78 37
0 10 -121 45 -200 57 -65 11 -367 13 -405 4z"/>
<path d="M2490 1161 c0 -5 -9 -13 -20 -16 -27 -8 -26 -35 1 -35 22 0 48 25 49
48 0 6 -7 12 -15 12 -8 0 -15 -4 -15 -9z"/>
<path d="M975 990 c-3 -6 5 -10 19 -10 14 0 28 5 31 10 3 6 -5 10 -19 10 -14
0 -28 -4 -31 -10z"/>
<path d="M1202 958 c-19 -19 -15 -26 34 -48 57 -25 99 -27 90 -4 -3 9 -6 19
-6 23 0 12 -57 41 -82 41 -13 0 -29 -5 -36 -12z"/>
<path d="M1075 680 c17 -6 71 -15 120 -21 50 -6 125 -22 168 -35 80 -25 161
-31 172 -14 3 5 -7 12 -22 15 -15 3 -50 13 -78 22 -45 15 -110 23 -320 38 -54
4 -63 2 -40 -5z"/>
<path d="M2447 514 c-3 -4 -32 -9 -64 -13 -51 -5 -58 -9 -61 -30 -2 -13 -12
-25 -22 -28 -27 -7 -44 -46 -31 -70 6 -13 9 -87 8 -197 l-2 -176 93 0 c53 0
92 4 92 10 0 5 6 7 14 4 22 -8 29 14 8 25 -29 15 -42 114 -28 209 4 21 -11 91
-25 117 -5 12 -11 27 -12 35 -2 8 -6 21 -11 29 -7 10 -4 12 13 6 38 -12 82 -8
99 8 15 16 14 19 -13 47 -28 29 -45 36 -58 24z"/>
<path d="M2178 332 c-7 -11 -30 -30 -50 -41 -20 -12 -63 -55 -97 -95 -68 -83
-147 -152 -200 -178 -35 -17 -32 -17 171 -18 133 0 209 4 213 10 4 6 7 78 8
161 1 124 -2 152 -15 165 -14 14 -17 14 -30 -4z"/>
<path d="M733 85 c2 -5 37 -27 78 -47 67 -34 82 -37 157 -38 45 0 82 4 82 9 0
10 -35 21 -69 21 -14 0 -34 9 -46 20 -38 35 -212 66 -202 35z"/>
</g>
</svg>
